<svg width="414" height="414" viewBox="0 0 414 414" fill="none" xmlns="http://www.w3.org/2000/svg">
<path d="M88.4546 378C98.2799 350.959 74.3973 329.491 61.2278 322.138L207 375.286C146.924 353.383 102.938 367.969 88.4546 378Z" fill="#D9D9D9"/>
<path d="M88.4546 378C98.2799 350.959 74.3973 329.491 61.2278 322.138L207 375.286C146.924 353.383 102.938 367.969 88.4546 378Z" fill="white"/>
<path d="M325.545 378C315.72 350.959 339.603 329.491 352.772 322.138L207 375.286C267.076 353.383 311.062 367.969 325.545 378Z" fill="#D9D9D9"/>
<path d="M325.545 378C315.72 350.959 339.603 329.491 352.772 322.138L207 375.286C267.076 353.383 311.062 367.969 325.545 378Z" fill="white"/>
<path d="M207 26C201.643 59.3679 174.858 126.104 110.575 126.104C142.716 148.934 207 230.422 207 373.729C207 230.422 271.284 148.934 303.425 126.104C239.142 126.104 212.357 59.3679 207 26Z" fill="#D9D9D9"/>
<path d="M207 26C201.643 59.3679 174.858 126.104 110.575 126.104C142.716 148.934 207 230.422 207 373.729C207 230.422 271.284 148.934 303.425 126.104C239.142 126.104 212.357 59.3679 207 26Z" fill="white"/>
<path d="M0 166.577C16.4566 189.38 39.9087 244.464 2.06424 282.374C34.4041 276.859 120.139 286.923 204.36 371.289C120.139 286.923 110.093 201.04 115.598 168.645C77.7532 206.554 22.764 183.062 0 166.577Z" fill="#D9D9D9"/>
<path d="M0 166.577C16.4566 189.38 39.9087 244.464 2.06424 282.374C34.4041 276.859 120.139 286.923 204.36 371.289C120.139 286.923 110.093 201.04 115.598 168.645C77.7532 206.554 22.764 183.062 0 166.577Z" fill="white"/>
<path d="M414 166.577C391.236 183.062 336.247 206.554 298.402 168.645C303.907 201.04 293.861 286.922 209.64 371.288C293.861 286.922 379.596 276.859 411.936 282.373C374.091 244.464 397.543 189.38 414 166.577Z" fill="#D9D9D9"/>
<path d="M414 166.577C391.236 183.062 336.247 206.554 298.402 168.645C303.907 201.04 293.861 286.922 209.64 371.288C293.861 286.922 379.596 276.859 411.936 282.373C374.091 244.464 397.543 189.38 414 166.577Z" fill="white"/>
</svg>
